<svg xmlns="http://www.w3.org/2000/svg" viewBox="0 0 199.55 31.32"><defs><style>.cls-1,.cls-2{fill:#fff;}.cls-2{font-size:19.2px;font-family:Nexa-Bold, Nexa;font-weight:700;letter-spacing:-0.01em;}.cls-3{letter-spacing:-0.02em;}</style></defs><g id="Layer_2" data-name="Layer 2"><g id="home_page" data-name="home page"><path class="cls-1" d="M15.65,0a15.66,15.66,0,1,0,5,30.52.87.87,0,0,0,.47-1.26h0a.88.88,0,0,0-1-.39,13.92,13.92,0,1,1,7.55-6.05.89.89,0,0,0,0,.89h0a.88.88,0,0,0,1.51,0A15.66,15.66,0,0,0,15.65,0Z"/><path class="cls-1" d="M10.39,7.85a20.87,20.87,0,0,1,4-.34c2.2,0,3.62.41,4.61,1.31a4,4,0,0,1,1.25,3,4.17,4.17,0,0,1-3,4.07V16c1.23.42,2,1.56,2.34,3.21a29.23,29.23,0,0,0,1.2,4.5l-1.92,0a17.92,17.92,0,0,1-1.24-3.89c-.48-2.2-1.33-3-3.2-3.1H12.45v6.91H10.39Zm2.09,7.37h2.14c2.23,0,3.64-1.23,3.64-3.07,0-2.09-1.51-3-3.72-3a9,9,0,0,0-2.06.19Z"/><path class="cls-1" d="M20.75,23.7s3.47,3.78,6.76-.73l1.45.9a8.79,8.79,0,0,1-3.19,2.49c-2,.84-4.67.76-6.94-2.7l1.25-.34Z"/><text class="cls-2" transform="translate(35.23 22.97)">R<tspan class="cls-3" x="13.62" y="0">A</tspan><tspan x="27.9" y="0">SHID DESIGNS</tspan></text></g></g></svg>