<svg xmlns="http://www.w3.org/2000/svg" viewBox="0 0 340 79.83"><defs><style>.cls-1{fill:#000026;}.cls-2{font-size:26.63px;fill:#ffd400;font-family:Roboto-Regular, Roboto;letter-spacing:-0.02em;}.cls-3{letter-spacing:-0.03em;}.cls-4{letter-spacing:-0.06em;}.cls-5{letter-spacing:-0.02em;}.cls-6{letter-spacing:-0.04em;}.cls-7{fill:#fff;}</style></defs><g id="Layer_2" data-name="Layer 2"><g id="home_page" data-name="home page"><path class="cls-1" d="M59.13,14.78H324.5A15.5,15.5,0,0,1,340,30.28V45.11a15.5,15.5,0,0,1-15.5,15.5H59.13a0,0,0,0,1,0,0V14.78A0,0,0,0,1,59.13,14.78Z"/><text class="cls-2" transform="translate(94.11 48.96)">CO<tspan class="cls-3" x="34.69" y="0">N</tspan><tspan class="cls-4" x="52.82" y="0">T</tspan><tspan class="cls-5" x="67.2" y="0">A</tspan><tspan class="cls-3" x="83.96" y="0">C</tspan><tspan class="cls-6" x="100.44" y="0">T</tspan><tspan x="115.33" y="0" xml:space="preserve"> US NOW</tspan></text><circle class="cls-7" cx="39.91" cy="39.91" r="39.91"/><path class="cls-1" d="M35.63,49.05a18.2,18.2,0,0,1,1-6.82,14.11,14.11,0,0,1,3.8-5,19.6,19.6,0,0,0,3.69-4A6.33,6.33,0,0,0,45.07,30q0-5.17-4.77-5.18a4.88,4.88,0,0,0-3.62,1.39A5.51,5.51,0,0,0,35.26,30H26.4a11.81,11.81,0,0,1,3.77-9.15q3.72-3.3,10.13-3.3T50.36,20.7q3.57,3.14,3.58,8.86a10.85,10.85,0,0,1-1.16,4.91,20.17,20.17,0,0,1-4.07,5.12L46.23,42a8.49,8.49,0,0,0-2.66,5.23l-.12,1.87Zm-.89,9.37a4.44,4.44,0,0,1,1.39-3.37,5.46,5.46,0,0,1,7.12,0,4.44,4.44,0,0,1,1.39,3.37,4.4,4.4,0,0,1-1.36,3.32,5,5,0,0,1-3.59,1.31,5,5,0,0,1-3.59-1.31A4.4,4.4,0,0,1,34.74,58.42Z"/></g></g></svg>